# xmcd
#
# Track frame offsets: 
#        150
#        14536
#        26146
#        42421
#        61993
#        72512
#        92093
#        95022
#        114063
#        131726
#        139469
#        156181
#        174426
#
# Disc length: 3318 seconds
#
# Revision: 0
# Processed by: cddbd v1.4PL0 Copyright (c) Steve Scherf et al.
# Submitted via: ExactAudioCopy v0.95a3
#
DISCID=b80cf40d
DTITLE=Soledad Brothers - Voice Of Treason
DYEAR=2003
DGENRE=Rock
TTITLE0=Cage That Tiger
TTITLE1=The Elucidator
TTITLE2=Lowdown Streamline
TTITLE3=Sons Of Dogs
TTITLE4=Lay Down This World
TTITLE5=Only Flower In My Bed
TTITLE6=Boogie With Viner
TTITLE7=Sights Unseen
TTITLE8=On Time
TTITLE9=I'm So Glad
TTITLE10=Ain't It Funny
TTITLE11=Handle Song
TTITLE12=Lorali
EXTD=
EXTT0=
EXTT1=
EXTT2=
EXTT3=
EXTT4=
EXTT5=
EXTT6=
EXTT7=
EXTT8=
EXTT9=
EXTT10=
EXTT11=
EXTT12=
PLAYORDER=
